<?xml version="1.0" standalone="no"?>
<!DOCTYPE svg PUBLIC "-//W3C//DTD SVG 20010904//EN"
 "http://www.w3.org/TR/2001/REC-SVG-20010904/DTD/svg10.dtd">
<svg version="1.0" xmlns="http://www.w3.org/2000/svg"
 width="920.000000pt" height="920.000000pt" viewBox="0 0 920.000000 920.000000"
 preserveAspectRatio="xMidYMid meet">
<metadata>
Created by potrace 1.14, written by Peter Selinger 2001-2017
</metadata>
<g transform="translate(0.000000,920.000000) scale(0.100000,-0.100000)"
fill="#cf1e45" stroke="none">
<path d="M2457 8984 c-1 -1 -51 -5 -112 -8 -391 -25 -729 -130 -1050 -326
-200 -122 -420 -309 -576 -490 -35 -41 -66 -77 -69 -80 -14 -13 -141 -192
-178 -253 -170 -271 -300 -586 -371 -897 -12 -52 -26 -113 -31 -135 -10 -40
-32 -180 -49 -310 -10 -73 -8 -754 3 -815 3 -19 8 -51 11 -70 11 -70 17 -107
32 -180 8 -41 17 -86 19 -100 10 -53 55 -219 83 -310 108 -347 234 -629 468
-1042 53 -94 215 -345 295 -457 63 -87 227 -307 253 -339 8 -9 48 -59 90 -110
124 -155 285 -338 438 -502 262 -280 571 -579 872 -846 205 -182 290 -253 580
-493 252 -207 730 -568 1139 -859 266 -190 300 -212 315 -199 9 8 86 63 171
122 131 91 452 321 485 348 6 4 80 60 165 124 270 202 519 399 775 612 155
129 434 370 470 406 12 11 63 58 115 105 127 114 331 313 509 494 168 171 148
150 270 286 52 58 102 112 110 121 47 48 246 289 367 445 137 176 128 164 247
336 432 625 703 1227 827 1840 50 248 59 362 56 728 -2 190 -6 356 -9 370 -3
14 -8 52 -12 85 -4 33 -9 63 -11 66 -1 3 -6 28 -10 55 -3 27 -8 56 -9 64 -70
332 -141 542 -270 805 -255 520 -653 930 -1136 1171 -167 83 -386 160 -542
189 -12 3 -33 7 -47 9 -14 3 -50 8 -80 12 -30 3 -57 7 -60 9 -11 7 -260 18
-395 18 -130 1 -329 -9 -373 -18 -10 -2 -43 -6 -73 -10 -30 -3 -61 -8 -69 -10
-8 -2 -33 -7 -55 -10 -147 -20 -386 -93 -531 -161 -246 -115 -541 -330 -772
-561 l-132 -133 -133 133 c-156 158 -288 265 -488 396 -317 210 -558 295
-1004 355 -97 13 -507 29 -518 20z m443 -138 c14 -2 70 -9 125 -16 55 -7 102
-13 105 -15 3 -2 22 -6 44 -9 73 -12 236 -56 331 -91 270 -98 588 -312 858
-578 63 -61 141 -144 175 -184 l60 -72 63 72 c141 160 309 318 474 444 281
213 552 342 838 399 10 2 26 5 35 8 37 11 224 36 327 44 118 9 466 8 580 -2
353 -30 684 -145 981 -340 61 -41 124 -84 140 -97 133 -112 190 -163 256 -231
347 -352 605 -857 709 -1388 11 -58 22 -112 24 -121 2 -9 6 -40 10 -70 3 -30
8 -61 10 -69 25 -97 25 -721 1 -870 -3 -14 -10 -59 -16 -100 -47 -298 -160
-685 -271 -928 -16 -35 -29 -65 -29 -67 0 -9 -130 -273 -183 -370 -98 -180
-246 -417 -384 -615 -41 -59 -244 -332 -253 -340 -3 -3 -32 -39 -65 -80 -57
-72 -284 -338 -322 -377 -10 -11 -70 -75 -133 -143 -176 -189 -556 -565 -704
-695 -81 -72 -192 -171 -196 -176 -3 -3 -39 -34 -80 -69 -41 -35 -77 -67 -80
-70 -3 -3 -32 -28 -65 -55 -33 -28 -62 -52 -65 -55 -15 -15 -156 -130 -288
-236 -31 -25 -66 -54 -77 -63 -173 -143 -701 -540 -960 -721 -66 -47 -122 -87
-125 -90 -3 -3 -37 -27 -77 -54 -46 -31 -76 -45 -85 -40 -14 8 -482 340 -508
360 -8 7 -127 96 -265 200 -214 160 -447 342 -600 467 -101 82 -341 282 -345
287 -3 4 -41 37 -85 75 -44 38 -82 72 -85 75 -3 3 -27 25 -55 49 -944 835
-1664 1711 -2066 2511 -245 489 -398 990 -435 1425 -8 103 -8 569 1 659 10
111 20 182 31 241 2 11 6 34 9 50 29 170 88 381 170 605 38 104 170 354 253
480 268 407 603 694 1042 893 70 32 249 87 360 111 140 30 177 35 305 42 55 4
102 8 103 10 5 4 451 -5 482 -10z"/>
<path d="M2467 8704 c-1 -1 -55 -5 -119 -8 -65 -4 -126 -9 -136 -11 -10 -2
-43 -6 -72 -10 -29 -4 -60 -8 -69 -10 -302 -62 -580 -197 -851 -413 -88 -70
-293 -268 -350 -337 -226 -276 -388 -616 -487 -1025 -19 -80 -37 -156 -39
-170 -3 -14 -9 -47 -14 -75 -9 -48 -11 -62 -25 -170 -4 -27 -9 -61 -11 -75 -6
-30 -5 -603 0 -645 2 -16 7 -57 11 -90 16 -146 56 -331 120 -555 70 -243 266
-671 450 -985 109 -187 320 -506 456 -690 57 -77 106 -142 109 -145 3 -3 46
-54 95 -115 245 -303 681 -757 1031 -1071 43 -40 91 -83 105 -95 153 -139 485
-421 669 -569 24 -19 62 -50 84 -68 51 -41 41 -34 226 -178 201 -156 504 -384
752 -563 l198 -143 132 96 c73 53 142 102 153 110 49 34 555 414 601 450 28
23 68 55 90 71 84 66 431 345 459 370 17 15 46 39 65 54 19 14 37 28 40 31 3
3 52 46 110 95 58 49 107 92 110 95 3 3 48 43 100 89 343 303 688 640 940 920
47 52 90 99 95 105 10 10 168 197 204 241 9 11 45 58 81 105 36 47 68 87 71
90 3 3 21 27 40 54 19 27 49 70 67 95 245 342 493 765 639 1091 101 224 216
557 239 687 3 15 11 55 19 88 43 191 50 274 50 640 0 320 -3 389 -24 505 -6
30 -12 69 -15 85 -19 128 -82 373 -133 520 -173 493 -431 844 -848 1150 -255
187 -573 321 -830 351 -33 3 -69 8 -79 10 -125 23 -621 22 -749 -1 -12 -3 -40
-7 -62 -10 -167 -21 -392 -85 -547 -157 -149 -68 -335 -192 -508 -338 -104
-87 -320 -307 -414 -420 -44 -52 -83 -99 -88 -104 -4 -6 -22 7 -40 29 -296
353 -578 605 -861 768 -287 166 -635 246 -1090 252 -81 0 -148 0 -150 -1z
m443 -518 c25 -4 68 -11 95 -17 28 -5 65 -12 84 -15 121 -20 332 -111 469
-202 226 -153 386 -311 721 -712 113 -135 208 -247 211 -250 3 -3 15 -17 27
-32 51 -67 85 -101 92 -90 6 11 39 50 136 161 22 26 58 69 80 96 48 58 98 118
105 125 3 3 50 59 105 124 135 164 224 257 385 406 100 94 290 223 404 275
137 64 312 112 481 132 86 10 472 10 575 0 425 -41 807 -269 1096 -653 46 -62
84 -115 84 -118 0 -3 17 -34 38 -68 102 -168 194 -405 243 -622 53 -239 62
-330 62 -636 0 -228 -3 -307 -18 -390 -3 -14 -7 -41 -10 -60 -3 -19 -8 -42
-10 -50 -2 -8 -7 -31 -10 -50 -3 -19 -21 -95 -40 -168 -108 -411 -334 -884
-631 -1319 -100 -148 -127 -186 -134 -193 -3 -3 -17 -21 -30 -40 -14 -19 -30
-42 -37 -50 -6 -8 -49 -62 -94 -120 -133 -169 -291 -354 -445 -520 -23 -25
-58 -63 -78 -85 -21 -22 -101 -104 -178 -183 l-141 -142 -48 116 c-27 64 -62
140 -78 169 -32 57 -60 184 -54 250 2 32 15 51 70 109 133 140 198 223 222
283 13 31 11 34 -42 100 -48 59 -58 79 -76 154 -39 165 -87 247 -224 380 l-88
87 20 67 c12 37 23 77 25 89 3 11 13 60 24 107 16 73 20 133 13 198 0 7 -94
-78 -209 -190 -114 -112 -236 -223 -271 -247 l-63 -42 -46 33 c-49 35 -78 83
-113 187 l-22 64 -39 -44 c-151 -170 -228 -315 -205 -386 4 -12 -1 -45 -13
-80 -39 -111 -73 -260 -86 -374 -11 -92 -13 -130 -19 -335 -7 -226 -20 -306
-60 -366 -22 -35 -104 -109 -119 -109 -9 0 -188 -142 -239 -189 -257 -239
-376 -398 -526 -705 -97 -197 -162 -358 -188 -463 -10 -38 -18 -70 -20 -72 -3
-4 -53 31 -134 95 l-67 53 29 116 c15 64 31 135 34 158 3 23 8 49 11 58 2 9 7
34 10 55 3 22 7 50 9 64 15 110 20 205 19 395 0 181 -5 256 -28 420 -27 201
-32 239 -41 285 -3 14 -7 41 -10 60 -3 19 -8 46 -10 60 -14 66 -12 97 10 175
38 141 77 191 190 248 35 17 74 27 130 32 114 9 153 14 315 41 83 13 192 44
223 62 15 9 30 26 32 37 20 97 25 133 25 175 0 42 -4 51 -29 69 -17 13 -31 34
-35 53 -9 45 -18 58 -47 63 -13 3 -35 7 -49 10 -65 14 -77 16 -100 20 -88 16
-152 22 -203 21 -31 0 -57 2 -57 5 0 11 63 55 128 89 80 42 248 154 300 202
69 62 129 143 147 198 19 57 29 239 15 276 -8 20 -5 25 18 37 19 9 27 20 25
37 -2 35 -40 132 -66 172 -21 29 -28 33 -68 32 -149 -3 -337 -44 -599 -130
-74 -24 -137 -40 -140 -36 -4 4 -19 41 -34 82 -43 123 -52 133 -141 159 -124
37 -204 51 -295 51 -59 0 -101 6 -138 19 -70 26 -68 25 -63 36 16 41 31 118
36 192 4 51 12 92 19 98 28 22 148 190 176 245 40 79 76 192 95 298 20 109 59
231 97 302 29 56 99 140 116 140 5 0 21 9 36 21 31 24 46 18 46 -19 0 -25 1
-25 17 -9 33 33 18 110 -43 208 -15 24 -19 40 -13 46 16 16 -7 59 -43 81 -45
27 -174 72 -225 79 -47 6 -106 -22 -152 -71 -17 -17 -31 -24 -45 -20 -34 8
-101 -62 -196 -203 -30 -45 -59 -82 -63 -83 -10 0 -164 -111 -312 -225 -215
-166 -407 -392 -548 -646 -31 -55 -46 -71 -89 -94 -97 -52 -420 -259 -461
-296 -26 -23 -38 -40 -33 -48 14 -22 133 -8 311 34 21 6 3 -12 -65 -60 -303
-216 -481 -360 -509 -413 -14 -27 2 -44 41 -44 32 0 111 37 373 177 44 23 125
66 180 95 55 29 128 68 162 87 39 21 72 32 87 29 29 -5 138 48 247 121 74 49
76 49 97 32 31 -25 87 -16 204 33 72 30 101 37 114 30 21 -12 68 0 131 34 25
13 48 24 49 24 2 0 4 -14 4 -30 0 -38 31 -101 79 -160 37 -45 38 -53 10 -57
-50 -8 -270 -56 -304 -67 -22 -7 -62 -14 -89 -15 -98 -3 -246 -52 -246 -82 0
-16 -265 -138 -335 -154 -80 -19 -173 -97 -208 -174 -34 -77 -20 -150 59 -311
37 -74 77 -148 89 -165 l23 -30 -47 -145 c-26 -80 -51 -154 -55 -165 -59 -154
-97 -246 -133 -325 -49 -106 -163 -310 -173 -310 -7 0 -73 76 -99 114 -8 12
-18 23 -21 26 -3 3 -44 57 -92 120 -439 589 -717 1153 -837 1700 -51 231 -55
278 -55 590 0 266 3 313 30 469 92 529 319 955 670 1257 82 70 197 154 212
154 6 0 12 3 14 8 5 13 141 80 234 116 104 40 252 73 379 85 99 8 503 6 575
-3z"/>
</g>
</svg>
